<svg xmlns="http://www.w3.org/2000/svg" width="222.628" height="49.608" viewBox="0 0 222.628 49.608">
  <g id="ImmunifyMe_logo" data-name="ImmunifyMe logo" transform="translate(-0.003 0.006)">
    <path id="Path_1" data-name="Path 1" d="M37.575,114.215c.221-.8.435-1.539.636-2.275.355-1.338.709-2.63,1.051-3.949a.776.776,0,0,1,.5-.582,15.018,15.018,0,0,0,5.836-23.423,14.369,14.369,0,0,0-9.008-5.267,14.576,14.576,0,0,0-12.167,3.252,14.4,14.4,0,0,0-5.287,9.436,14.67,14.67,0,0,0,3.754,12.234,14.3,14.3,0,0,0,5.153,3.694.756.756,0,0,1,.489.589c.529,1.968,1.071,3.928,1.6,5.9a2.751,2.751,0,0,1,.067.274c-.141.114-.294.047-.435,0a20.976,20.976,0,0,1,.475-41.178A20.454,20.454,0,0,1,49.24,79.14a19.722,19.722,0,0,1,5.421,10.755,21.034,21.034,0,0,1-15.553,23.992c-.341.087-.669.161-1.031.234C37.957,114.154,37.809,114.174,37.575,114.215Z" transform="translate(-13.02 -72.57)" fill="#8e499a"/>
    <path id="Path_2" data-name="Path 2" d="M289.778,96.639a1.808,1.808,0,0,0-.054.6v12.508c0,.669,0,.622-.589.616-1.225,0-2.449.067-3.674.08h-.321a.256.256,0,0,1-.281-.261V90.951c0-.616-.047-.569.569-.569h7.081c.489,0,.489,0,.616.475q1.265,4.685,2.536,9.369a1.572,1.572,0,0,0,.221.576c.228-.83.448-1.646.669-2.456.669-2.543,1.338-5.08,2.041-7.629a.381.381,0,0,1,.428-.348h7.408c.341,0,.348,0,.355.368V109.73c0,.669.06.589-.6.589h-4.651a.257.257,0,0,1-.274-.261,3.283,3.283,0,0,0,0-.368V96.572a4.451,4.451,0,0,0-.442,1.265q-1.68,6.063-3.346,12.133c-.107.375-.107.381-.489.381h-2.9c-.381,0-.381,0-.489-.388l-3.7-12.977A2.74,2.74,0,0,0,289.778,96.639Z" transform="translate(-102.933 -78.458)" fill="#b884ba"/>
    <path id="Path_3" data-name="Path 3" d="M112.57,99.236c.355-.348.669-.669.984-1.011a5.12,5.12,0,0,1,4.076-1.338,6.3,6.3,0,0,1,1,.154,3.828,3.828,0,0,1,2.9,3.065,6.693,6.693,0,0,1,.147,1.506V111.73c0,.482,0,.489-.468.489h-4.845c-.274,0-.294-.08-.288-.294v-8.339a5.434,5.434,0,0,0-.154-1.506,1.278,1.278,0,0,0-2.168-.669,2.536,2.536,0,0,0-.8,1.753,5,5,0,0,0,0,.549q0,4.015,0,8.031c0,.509.06.5-.5.5h-4.645c-.422,0-.422,0-.422-.435v-9.456a1.338,1.338,0,0,0-1.292-1.3,1.385,1.385,0,0,0-1.392,1.338v9.336c0,.5.067.509-.489.509H99.132a.187.187,0,0,1-.214-.228q0-.161,0-.321V97.636a1.291,1.291,0,0,0,0-.228c0-.254.1-.308.328-.308h4.732c.248,0,.328.087.321.315v1.1c0,.12-.04.248.06.375.134-.06.194-.187.281-.281a5.26,5.26,0,0,1,5.354-1.579,3.734,3.734,0,0,1,2.329,1.68Z" transform="translate(-41.429 -80.6)" fill="#8e499a"/>
    <path id="Path_4" data-name="Path 4" d="M143,99.055c.234-.241.381-.408.542-.569a5.233,5.233,0,0,1,5.173-1.338,3.821,3.821,0,0,1,2.336,1.74c.08.127.12.288.261.381.274-.288.542-.582.823-.857a5.133,5.133,0,0,1,4.21-1.432,5.981,5.981,0,0,1,1.037.167,3.848,3.848,0,0,1,2.9,3.273,7.322,7.322,0,0,1,.1,1.338v10.159c0,.4,0,.408-.408.408h-4.732c-.448,0-.455,0-.455-.455v-8.412a5.153,5.153,0,0,0-.12-1.338,1.278,1.278,0,0,0-2.188-.669,2.362,2.362,0,0,0-.75,1.486,4.687,4.687,0,0,0-.033.669v8.185c0,.428,0,.435-.422.435h-4.738a.982.982,0,0,0-.141,0c-.187,0-.288-.06-.274-.261a2.45,2.45,0,0,0,0-.321v-8.874a2.389,2.389,0,0,0-.114-.816,1.238,1.238,0,0,0-1.071-.883,1.285,1.285,0,0,0-1.338.669,2.188,2.188,0,0,0-.228,1.111v8.7c0,.669.087.6-.616.609h-4.685c-.422,0-.422,0-.422-.428V97.6c0-.422,0-.422.428-.422h4.491c.422,0,.422,0,.422.428Z" transform="translate(-54.242 -80.633)" fill="#8e499a"/>
    <path id="Path_5" data-name="Path 5" d="M41.278,132.911l-1.144-3.922c-1.185-4.1-2.362-8.2-3.433-12.341-.408-1.553-.77-3.112-1.111-4.685a5.849,5.849,0,0,1,11.5-2.162A6.485,6.485,0,0,1,47,112.439c-.462,2.429-1.131,4.825-1.8,7.214-1.164,4.283-2.409,8.546-3.681,12.8-.047.154-.1.308-.154.462Z" transform="translate(-20.451 -83.31)" fill="#8e499a"/>
    <path id="Path_6" data-name="Path 6" d="M208.638,99.053c.1-.107.207-.214.294-.321a5.454,5.454,0,0,1,5.976-1.579,4.015,4.015,0,0,1,2.6,2.991,6.265,6.265,0,0,1,.207,1.686V112.1a.183.183,0,0,1-.187.194h-5.561a.187.187,0,0,1-.214-.228v-9.2a5.155,5.155,0,0,0,0-.669,1.392,1.392,0,0,0-1.338-1.338,1.479,1.479,0,0,0-1.432,1.338,5.155,5.155,0,0,0,0,.669v9.1c0,.348,0,.355-.368.355h-5.24c-.328,0-.335,0-.341-.335V97.741c0-.569-.054-.515.522-.515h4.638c.4,0,.408,0,.408.4v1.4Z" transform="translate(-75.867 -80.597)" fill="#8e499a"/>
    <path id="Path_7" data-name="Path 7" d="M185.426,110.437c-.381.348-.622.669-.93.957a4.952,4.952,0,0,1-4.082,1.238,6.465,6.465,0,0,1-1.74-.408,3.774,3.774,0,0,1-2.456-3.346c-.033-.408-.04-.823-.047-1.238V97.868c0-.448,0-.455.455-.455h5.013c.529,0,.5-.06.5.489v8.325a6.3,6.3,0,0,0,.12,1.338c.094.408.261.783.709.877a1.4,1.4,0,0,0,1.412-.321,2.275,2.275,0,0,0,.576-1.419V97.8c0-.395,0-.4.4-.4h5.2c.368,0,.375,0,.375.388V112.13c0,.368,0,.375-.348.375l-4.778-.047c-.388,0-.395,0-.395-.422Z" transform="translate(-66.983 -80.785)" fill="#8e499a"/>
    <path id="Path_8" data-name="Path 8" d="M332.69,106.2H328.14c-.448,0-.448,0-.455.462a4.163,4.163,0,0,0,.094,1,2.075,2.075,0,0,0,2.208,1.747,3.252,3.252,0,0,0,1.037-.154,1.78,1.78,0,0,0,1.339-1.338c.06-.248.154-.321.395-.308,1.024,0,2.048.094,3.072.174.408,0,.83,0,1.238.04s.535.074.381.549a6.465,6.465,0,0,1-2.791,3.587,7.924,7.924,0,0,1-3.42,1.1,11.511,11.511,0,0,1-4.276-.294,6.558,6.558,0,0,1-4.551-3.681,7.737,7.737,0,0,1-.669-2.931,9.3,9.3,0,0,1,.609-3.915,6.82,6.82,0,0,1,4.959-4.384,10.5,10.5,0,0,1,5.354.12,6.4,6.4,0,0,1,4.685,4.725,10.708,10.708,0,0,1,.408,3.085c0,.4,0,.408-.408.408Zm-2.831-2.57h1.472c.77,0,.75.174.669-.756-.134-1.74-1.338-2.3-2.817-2.008a1.492,1.492,0,0,0-.957.669,3.232,3.232,0,0,0-.529,1.686c0,.381,0,.388.368.395Z" transform="translate(-115.127 -80.84)" fill="#b884ba"/>
    <path id="Path_9" data-name="Path 9" d="M258.47,97.58h5.481c.408,0,.415,0,.549.4q1.225,3.513,2.456,7.027c.054.154.114.315.174.475.161-.094.154-.248.194-.381q1.1-3.534,2.182-7.06c.147-.489.107-.448.589-.448h3.219a.89.89,0,0,1,.428.054c-.054.167-.1.328-.154.482L268.6,112.444a12.315,12.315,0,0,1-1.379,2.945,5.173,5.173,0,0,1-1.338,1.419,4.243,4.243,0,0,1-2.4.669c-1.338,0-2.637,0-3.948.04-.241,0-.321-.074-.315-.308V113.8c0-.241.087-.315.321-.315h3.172a1.225,1.225,0,0,0,1.151-1.713c-.194-.562-.422-1.118-.629-1.673q-2.309-6.023-4.6-12.113C258.57,97.861,258.537,97.761,258.47,97.58Z" transform="translate(-94.205 -80.844)" fill="#8e499a"/>
    <path id="Path_10" data-name="Path 10" d="M252.341,92.244l-1.579-.194a3.741,3.741,0,0,0-1.191.06,1.164,1.164,0,0,0-1,1.057,7.436,7.436,0,0,0-.06.776c0,.489-.033.462.435.462h3.125c.187,0,.241.08.241.248v3.219c0,.234-.074.321-.315.315h-2.851c-.515,0-.5-.067-.5.489v10.039c0,.6.067.576-.569.576H243.2a.238.238,0,0,1-.234-.254c.007-.167,0-.214,0-.321V98.675c0-.542.054-.5-.489-.5H241.1c-.228,0-.335-.047-.328-.3V94.613c0-.221.08-.294.294-.288h1.2c.455,0,.422,0,.442-.415a9.643,9.643,0,0,1,.348-2.262,3.9,3.9,0,0,1,2.115-2.577,8.7,8.7,0,0,1,4.531-.95,16.563,16.563,0,0,1,2.148.214c.074,0,.147.04.221.047.234,0,.288.154.288.375v2.757C252.334,91.762,252.341,91.99,252.341,92.244Z" transform="translate(-88.35 -77.71)" fill="#8e499a"/>
    <path id="Path_11" data-name="Path 11" d="M90.97,99.938v9.61a.266.266,0,0,1-.288.294c-.234-.02-.428,0-.669,0H85.054a.207.207,0,0,1-.214-.228V90.207c0-.174.06-.254.241-.248h5.468c.395,0,.4,0,.4.4Z" transform="translate(-36.774 -78.324)" fill="#8e499a"/>
    <path id="Path_12" data-name="Path 12" d="M41.376,84.47a5.836,5.836,0,1,1-4.155,1.657,5.856,5.856,0,0,1,4.155-1.657Z" transform="translate(-20.441 -76.508)" fill="#8e499a"/>
    <path id="Path_13" data-name="Path 13" d="M229.44,105.009V97.7a.239.239,0,0,1,.254-.241c.174.007.214,0,.321,0h5.1c.107,0,.268.054.254.234a1.867,1.867,0,0,0,0,.281v14.382a.24.24,0,0,1-.248.241,2.51,2.51,0,0,0-.321,0h-4.732c-.669,0-.622.094-.622-.6Q229.44,108.529,229.44,105.009Z" transform="translate(-84.603 -80.805)" fill="#8e499a"/>
    <path id="Path_14" data-name="Path 14" d="M232.441,93.477H230c-.388,0-.395,0-.395-.368V89.388c0-.341,0-.348.361-.348h5.013c.341,0,.348,0,.348.361v3.728c0,.341,0,.348-.361.348C234.127,93.484,233.284,93.477,232.441,93.477Z" transform="translate(-84.659 -78.02)" fill="#8e499a"/>
  </g>
</svg>
