<svg xmlns="http://www.w3.org/2000/svg" width="567.892" height="510.595" viewBox="0 0 567.892 510.595">
  <g id="Group_767" data-name="Group 767" transform="translate(-344 -3793.702)">
    <ellipse id="Ellipse_1" data-name="Ellipse 1" cx="206.314" cy="206.314" rx="206.314" ry="206.314" transform="translate(402.938 3844.653)" fill="none" stroke="#8f479b" stroke-miterlimit="10" stroke-width="4.73" stroke-dasharray="13.096 13.096"/>
    <rect id="Rectangle_86" data-name="Rectangle 86" width="172.299" height="147.564" rx="24.034" transform="translate(521.109 4156.733)" fill="#be9dc9"/>
    <path id="Path_1536" data-name="Path 1536" d="M879.224,1284.246H775.355a6.2,6.2,0,0,1-6.18-6.18h0a6.2,6.2,0,0,1,6.18-6.18H879.224a6.2,6.2,0,0,1,6.18,6.18h0A6.2,6.2,0,0,1,879.224,1284.246Z" transform="translate(-219.801 2961.586)" fill="#fff"/>
    <path id="Path_1537" data-name="Path 1537" d="M879.224,1335.36H775.355a6.2,6.2,0,0,1-6.18-6.18h0a6.2,6.2,0,0,1,6.18-6.18H879.224a6.2,6.2,0,0,1,6.18,6.18h0A6.2,6.2,0,0,1,879.224,1335.36Z" transform="translate(-219.801 2930.377)" fill="#fff"/>
    <ellipse id="Ellipse_2" data-name="Ellipse 2" cx="23.877" cy="23.877" rx="23.877" ry="23.877" transform="translate(583.646 4168.426)" fill="#fff"/>
    <path id="Path_1547" data-name="Path 1547" d="M906.779,1140.077a7.543,7.543,0,0,0,5.858-2.869,7.353,7.353,0,0,0,1.614-4.663,7.5,7.5,0,1,0-15,0,7.344,7.344,0,0,0,1.614,4.663A7.57,7.57,0,0,0,906.779,1140.077Z" transform="translate(-299.22 3051.265)" fill="#d88284"/>
    <path id="Path_1548" data-name="Path 1548" d="M910.956,1180.383c0,4.753-26.542,4.753-26.542,0l.008-5.539c1.049-7.572,24.377-7.89,26.539,0Z" transform="translate(-290.164 3024.38)" fill="#d88284"/>
    <path id="Path_1549" data-name="Path 1549" d="M790.07,1331.611v-.331a2.432,2.432,0,1,0-4.863,0v.331h-.369v4.383c0,.757,5.617.757,5.617,0v-4.383Zm-4-.331a1.574,1.574,0,1,1,3.146,0v.331h-3.146Zm1.979,2.539v1.266a.4.4,0,0,1-.422.389.374.374,0,0,1-.389-.389v-1.266a.738.738,0,0,1-.39-.649.779.779,0,1,1,1.2.649Z" transform="translate(-229.364 2926.807)" fill="#d88284"/>
    <path id="Path_1550" data-name="Path 1550" d="M789.552,1281.621a1.593,1.593,0,0,0,1.236-.606,1.553,1.553,0,0,0,.34-.984,1.583,1.583,0,1,0-3.166,0,1.549,1.549,0,0,0,.341.984A1.6,1.6,0,0,0,789.552,1281.621Z" transform="translate(-231.271 2957.584)" fill="#d88284"/>
    <path id="Path_1551" data-name="Path 1551" d="M790.389,1290.126c0,1-5.63,1-5.63,0l.031-1.169c.221-1.6,5.144-1.665,5.6,0Z" transform="translate(-229.315 2951.911)" fill="#d88284"/>
    <g id="Group_4" data-name="Group 4" transform="translate(570.087 4237.839)" style="isolation: isolate">
      <path id="Path_1538" data-name="Path 1538" d="M828.027,1336.865a2.176,2.176,0,1,1-2.176-2.176A2.176,2.176,0,0,1,828.027,1336.865Z" transform="translate(-823.165 -1314.599)" fill="#f6cdcd"/>
      <path id="Path_1539" data-name="Path 1539" d="M847.184,1336.865a2.176,2.176,0,1,1-2.176-2.176A2.176,2.176,0,0,1,847.184,1336.865Z" transform="translate(-834.862 -1314.599)" fill="#f6cdcd"/>
      <path id="Path_1540" data-name="Path 1540" d="M866.34,1336.865a2.176,2.176,0,1,1-2.176-2.176A2.176,2.176,0,0,1,866.34,1336.865Z" transform="translate(-846.558 -1314.599)" fill="#f6cdcd"/>
      <path id="Path_1541" data-name="Path 1541" d="M885.5,1336.865a2.176,2.176,0,1,1-2.176-2.176A2.175,2.175,0,0,1,885.5,1336.865Z" transform="translate(-858.255 -1314.599)" fill="#f6cdcd"/>
      <path id="Path_1542" data-name="Path 1542" d="M904.652,1336.865a2.176,2.176,0,1,1-2.176-2.176A2.176,2.176,0,0,1,904.652,1336.865Z" transform="translate(-869.952 -1314.599)" fill="#f6cdcd"/>
      <path id="Path_1543" data-name="Path 1543" d="M923.809,1336.865a2.176,2.176,0,1,1-2.176-2.176A2.176,2.176,0,0,1,923.809,1336.865Z" transform="translate(-881.648 -1314.599)" fill="#f6cdcd"/>
      <path id="Path_1544" data-name="Path 1544" d="M942.965,1336.865a2.176,2.176,0,1,1-2.176-2.176A2.176,2.176,0,0,1,942.965,1336.865Z" transform="translate(-893.344 -1314.599)" fill="#f6cdcd"/>
      <path id="Path_1545" data-name="Path 1545" d="M962.121,1336.865a2.176,2.176,0,1,1-2.176-2.176A2.176,2.176,0,0,1,962.121,1336.865Z" transform="translate(-905.041 -1314.599)" fill="#f6cdcd"/>
      <path id="Path_1546" data-name="Path 1546" d="M981.277,1336.865a2.176,2.176,0,1,1-2.176-2.176A2.175,2.175,0,0,1,981.277,1336.865Z" transform="translate(-916.738 -1314.599)" fill="#f6cdcd"/>
      <path id="Path_1552" data-name="Path 1552" d="M846.94,1286.726H824.177a1.819,1.819,0,0,1-1.813-1.813h0a1.819,1.819,0,0,1,1.813-1.814H846.94a1.819,1.819,0,0,1,1.813,1.814h0A1.819,1.819,0,0,1,846.94,1286.726Z" transform="translate(-822.364 -1283.099)" fill="#f6cdcd"/>
      <path id="Path_1553" data-name="Path 1553" d="M924.034,1286.726H901.271a1.819,1.819,0,0,1-1.813-1.813h0a1.819,1.819,0,0,1,1.813-1.814h22.762a1.819,1.819,0,0,1,1.813,1.814h0A1.819,1.819,0,0,1,924.034,1286.726Z" transform="translate(-869.437 -1283.099)" fill="#f6cdcd"/>
    </g>
    <path id="Path_1554" data-name="Path 1554" d="M244.649,850.289h0c0-.17,0-.245,0-.262C244.65,850.058,244.649,850.289,244.649,850.289Z" transform="translate(100.466 3219.167)" fill="#d9ffff"/>
    <path id="Path_1555" data-name="Path 1555" d="M244.649,850.289h0c0-.17,0-.245,0-.262C244.65,850.058,244.649,850.289,244.649,850.289Z" transform="translate(100.466 3219.167)" fill="#d9ffff"/>
    <path id="Path_1556" data-name="Path 1556" d="M505.384,851.455s0-.231,0-.262c0,.017,0,.092,0,.262Z" transform="translate(-58.734 3218.456)" fill="#d9ffff"/>
    <path id="Path_1557" data-name="Path 1557" d="M505.384,851.455s0-.231,0-.262c0,.017,0,.092,0,.262Z" transform="translate(-58.734 3218.456)" fill="#d9ffff"/>
    <path id="Path_1558" data-name="Path 1558" d="M295.414,780.259C283.582,792.933,264.7,803.32,244.5,807.746c-.006,1.349-.039,8.825-.193,43.282-.206,45.965,43.539,68.427,50.331,71.874,6.581-3.029,50.877-25.456,51.083-71.421.154-34.457.187-41.933.194-43.282C325.749,803.593,307.132,793.038,295.414,780.259Z" transform="translate(100.678 3261.767)" fill="#fff"/>
    <path id="Path_1559" data-name="Path 1559" d="M303.953,801.592c-11.587,10.629-27.639,18.983-45.29,23.537l-.174,38.945c-.08,17.82,7,33.941,21.042,47.917a100.654,100.654,0,0,0,23.85,17.439c.211-.107.444-.229.673-.348v-127.4C304.02,801.652,303.985,801.623,303.953,801.592Z" transform="translate(92.017 3248.741)" fill="#d88284"/>
    <path id="Path_1560" data-name="Path 1560" d="M375.5,801.825v127.4a100.707,100.707,0,0,0,23.333-16.877C413,898.5,420.221,882.44,420.3,864.62l.174-38.946C402.915,820.977,386.982,812.514,375.5,801.825Z" transform="translate(20.572 3248.599)" fill="#f7a7a8"/>
    <path id="Path_1561" data-name="Path 1561" d="M322.831,945.973v30.171c0,3.359,41.019,3.359,41.019,0V945.973ZM345.415,962v8.551a2.075,2.075,0,1,1-4.15,0v-8.571a5.046,5.046,0,1,1,4.15.019Z" transform="translate(52.73 3160.585)" fill="#fff"/>
    <path id="Path_1562" data-name="Path 1562" d="M365.894,910.738h-4.152v-2.032a12.766,12.766,0,1,0-25.531,0v2.032h-4.152v-2.032a16.918,16.918,0,1,1,33.836,0Z" transform="translate(47.096 3193.669)" fill="#fff"/>
    <rect id="Rectangle_88" data-name="Rectangle 88" width="74.096" height="92.489" transform="translate(625.61 3793.702)" fill="#9d668e"/>
    <rect id="Rectangle_89" data-name="Rectangle 89" width="74.096" height="92.489" transform="translate(635.219 3803.253)" fill="#fff" stroke="#be9dc9" stroke-miterlimit="10" stroke-width="6.341"/>
    <rect id="Rectangle_90" data-name="Rectangle 90" width="74.096" height="92.489" transform="translate(647.422 3812.631)" fill="#fff" stroke="#be9dc9" stroke-miterlimit="10" stroke-width="6.341"/>
    <rect id="Rectangle_91" data-name="Rectangle 91" width="74.096" height="92.489" transform="translate(656.3 3822.181)" fill="#f7a7a8"/>
    <rect id="Rectangle_92" data-name="Rectangle 92" width="38.328" height="6.015" transform="translate(680.542 3837.366)" fill="#fff"/>
    <rect id="Rectangle_93" data-name="Rectangle 93" width="49.663" height="6.015" transform="translate(669.207 3851.498)" fill="#fff"/>
    <rect id="Rectangle_94" data-name="Rectangle 94" width="49.663" height="6.015" transform="translate(669.207 3865.63)" fill="#fff"/>
    <rect id="Rectangle_95" data-name="Rectangle 95" width="49.663" height="6.015" transform="translate(669.207 3879.763)" fill="#fff"/>
    <rect id="Rectangle_96" data-name="Rectangle 96" width="49.663" height="6.015" transform="translate(669.207 3893.896)" fill="#fff"/>
    <ellipse id="Ellipse_3" data-name="Ellipse 3" cx="26.171" cy="26.171" rx="26.171" ry="26.171" transform="translate(431.7 3914.039) rotate(-77.096)" fill="#fff"/>
    <path id="Path_1563" data-name="Path 1563" d="M503.965,341.116a48.016,48.016,0,0,0,6.414-17.846l1.949.286,3.85.566.05,0a53.758,53.758,0,0,0-1.012-20.909l-5.727,1.419a48.03,48.03,0,0,0-8.1-17.144l4.747-3.528a53.526,53.526,0,0,0-15.5-14.086l-3.058,5.071a47.928,47.928,0,0,0-17.846-6.414l.856-5.849a54.1,54.1,0,0,0-20.909,1.011l1.419,5.727a48.034,48.034,0,0,0-17.144,8.1l-3.528-4.747a53.538,53.538,0,0,0-14.086,15.5l5.071,3.058A47.932,47.932,0,0,0,415,309.179l-4.138-.609-1.692-.234-.019-.011a54.111,54.111,0,0,0,1.011,20.908l5.728-1.418a48.123,48.123,0,0,0,8.12,17.155l-4.747,3.528a53.422,53.422,0,0,0,15.478,14.075L437.8,357.5a48.051,48.051,0,0,0,17.865,6.426l-.672,4.545-.184,1.3a54,54,0,0,0,20.889-1.023l-1.418-5.727a48.536,48.536,0,0,0,17.174-8.109l3.528,4.747a53.826,53.826,0,0,0,14.056-15.49Zm-54.794-2.476a26.164,26.164,0,1,1,35.913-8.91A26.162,26.162,0,0,1,449.172,338.639Z" transform="translate(0.38 3578.144)" fill="#9d668e"/>
    <path id="Path_1564" data-name="Path 1564" d="M325.015,434.217a25.286,25.286,0,0,0-7.037-7.082l.576-.863,1.139-1.7.013-.023a28.3,28.3,0,0,0-10.172-4.244l-.62,3.044a25.3,25.3,0,0,0-9.983-.021l-.605-3.055a28.176,28.176,0,0,0-10.2,4.187l1.72,2.6a25.236,25.236,0,0,0-7.083,7.037l-2.588-1.729a28.483,28.483,0,0,0-4.244,10.172l3.044.62a25.3,25.3,0,0,0-.021,9.983l-3.055.605a28.191,28.191,0,0,0,4.187,10.2l2.6-1.72a25.232,25.232,0,0,0,7.037,7.082l-1.225,1.83-.494.752-.01.007a28.49,28.49,0,0,0,10.172,4.244l.62-3.044a25.334,25.334,0,0,0,9.993.015l.605,3.055a28.132,28.132,0,0,0,10.191-4.18l-1.72-2.6a25.3,25.3,0,0,0,7.093-7.044l2.009,1.347.578.382a28.436,28.436,0,0,0,4.234-10.165l-3.044-.62a25.558,25.558,0,0,0,.025-10l3.055-.605a28.336,28.336,0,0,0-4.19-10.185Zm-13.559,25.5a13.776,13.776,0,1,1,3.878-19.092A13.775,13.775,0,0,1,311.456,459.715Z" transform="translate(81.387 3481.57)" fill="#c795ba"/>
    <rect id="Rectangle_97" data-name="Rectangle 97" width="68.473" height="40.949" rx="6.228" transform="translate(768.369 3928.02)" fill="#9d668e"/>
    <rect id="Rectangle_98" data-name="Rectangle 98" width="68.473" height="7.066" transform="translate(768.369 3935.754)" fill="#be9dc9"/>
    <path id="Path_1565" data-name="Path 1565" d="M1354.218,572.477h-10.068a1.159,1.159,0,0,0-1.159,1.159h0a1.159,1.159,0,0,0,1.159,1.159h10.068a1.159,1.159,0,0,0,1.158-1.159h0A1.158,1.158,0,0,0,1354.218,572.477Z" transform="translate(-570.166 3388.636)" fill="#fff"/>
    <path id="Path_1566" data-name="Path 1566" d="M1393.975,572.477h-10.068a1.159,1.159,0,0,0-1.159,1.159h0a1.159,1.159,0,0,0,1.159,1.159h10.068a1.159,1.159,0,0,0,1.159-1.159h0A1.159,1.159,0,0,0,1393.975,572.477Z" transform="translate(-594.441 3388.636)" fill="#fff"/>
    <path id="Path_1567" data-name="Path 1567" d="M1433.733,572.477h-10.068a1.159,1.159,0,0,0-1.159,1.159h0a1.159,1.159,0,0,0,1.159,1.159h10.068a1.159,1.159,0,0,0,1.159-1.159h0A1.159,1.159,0,0,0,1433.733,572.477Z" transform="translate(-618.717 3388.636)" fill="#fff"/>
    <path id="Path_1568" data-name="Path 1568" d="M1473.49,572.477h-10.068a1.159,1.159,0,0,0-1.159,1.159h0a1.159,1.159,0,0,0,1.159,1.159h10.068a1.159,1.159,0,0,0,1.159-1.159h0A1.159,1.159,0,0,0,1473.49,572.477Z" transform="translate(-642.993 3388.636)" fill="#fff"/>
    <path id="Path_1569" data-name="Path 1569" d="M1342.771,492.833h0a1.279,1.279,0,0,0-1.279,1.279v.449a1.279,1.279,0,0,0,1.279,1.279h0a1.279,1.279,0,0,0,1.279-1.279v-.449A1.279,1.279,0,0,0,1342.771,492.833Z" transform="translate(-569.249 3437.266)" fill="#fff"/>
    <path id="Path_1570" data-name="Path 1570" d="M1351.852,494.336h0a1.5,1.5,0,0,0,1.5,1.5h5.329a1.5,1.5,0,0,0,1.5-1.5h0a1.5,1.5,0,0,0-1.5-1.5h-5.329A1.5,1.5,0,0,0,1351.852,494.336Z" transform="translate(-575.574 3437.266)" fill="#fff"/>
    <rect id="Rectangle_99" data-name="Rectangle 99" width="10.877" height="9.929" rx="4.964" transform="translate(773.58 3946.62)" fill="#be9dc9"/>
    <path id="Path_1571" data-name="Path 1571" d="M1360.187,847.146v-4.677a3.846,3.846,0,0,0-3.845-3.846H1315.4a3.846,3.846,0,0,0-3.846,3.846v82.684h105.9V847.146Z" transform="translate(-550.97 3226.131)" fill="#d88284"/>
    <path id="Path_1572" data-name="Path 1572" d="M1421.861,867.808H1318.015l-6.459,75.165h105.386Z" transform="translate(-550.97 3208.311)" fill="#fff"/>
    <path id="Path_1573" data-name="Path 1573" d="M1417.458,938.518h-105.9l11.238-74.23a4.441,4.441,0,0,1,4.391-3.777H1424.1a4.441,4.441,0,0,1,4.391,5.106Z" transform="translate(-550.97 3212.766)" fill="#f7a7a8"/>
    <circle id="Ellipse_4" data-name="Ellipse 4" cx="24.265" cy="24.265" r="24.265" transform="translate(843.259 4076.118) rotate(-45)" fill="#9d668e"/>
    <path id="Path_1574" data-name="Path 1574" d="M1572.536,853.522a25.152,25.152,0,1,1,25.157-25.154A25.185,25.185,0,0,1,1572.536,853.522Zm0-48.53a23.378,23.378,0,1,0,23.377,23.377A23.4,23.4,0,0,0,1572.536,804.992Z" transform="translate(-694.962 3247.75)" fill="#fff"/>
    <path id="Path_1575" data-name="Path 1575" d="M1581.988,856.532v17.182c0,1.913,23.36,1.913,23.36,0V856.532Zm12.862,9.124v4.87a1.182,1.182,0,1,1-2.364,0v-4.88a2.873,2.873,0,1,1,2.364.011Z" transform="translate(-716.094 3215.196)" fill="#fff"/>
    <path id="Path_1576" data-name="Path 1576" d="M1606.512,836.466h-2.365V835.31a7.27,7.27,0,1,0-14.54,0v1.157h-2.365V835.31a9.634,9.634,0,1,1,19.269,0Z" transform="translate(-719.302 3234.036)" fill="#fff"/>
    <ellipse id="Ellipse_5" data-name="Ellipse 5" cx="9.29" cy="9.29" rx="9.29" ry="9.29" transform="translate(784.026 3863.756)" fill="#ca90b7"/>
    <ellipse id="Ellipse_6" data-name="Ellipse 6" cx="9.29" cy="9.29" rx="9.29" ry="9.29" transform="translate(538.646 3915.293) rotate(-80.25)" fill="#68c5a8"/>
    <ellipse id="Ellipse_7" data-name="Ellipse 7" cx="4.86" cy="4.86" rx="4.86" ry="4.86" transform="translate(853.598 4026.538)" fill="#68c5a8"/>
    <ellipse id="Ellipse_8" data-name="Ellipse 8" cx="4.86" cy="4.86" rx="4.86" ry="4.86" transform="translate(344 4044.132) rotate(-76.789)" fill="#68c5a8"/>
    <ellipse id="Ellipse_9" data-name="Ellipse 9" cx="9.29" cy="9.29" rx="9.29" ry="9.29" transform="translate(413.469 4213.285) rotate(-25.745)" fill="#68c5a8"/>
    <path id="Path_1579" data-name="Path 1579" d="M1302.761,734.678h0a1.61,1.61,0,0,1-1.609-1.61V715.836a1.61,1.61,0,0,1,1.609-1.61h0a1.61,1.61,0,0,1,1.609,1.61v17.232A1.61,1.61,0,0,1,1302.761,734.678Z" transform="translate(-544.617 3302.086)" fill="#68c5a8"/>
    <path id="Path_1580" data-name="Path 1580" d="M1279.025,737.962h0a1.61,1.61,0,0,1,1.61-1.609h17.232a1.61,1.61,0,0,1,1.61,1.609h0a1.61,1.61,0,0,1-1.61,1.609h-17.232A1.61,1.61,0,0,1,1279.025,737.962Z" transform="translate(-531.107 3288.575)" fill="#68c5a8"/>
    <path id="Path_1581" data-name="Path 1581" d="M1257.769,1317.537h0a1.61,1.61,0,0,1-1.61-1.61v-17.233a1.61,1.61,0,0,1,1.61-1.609h0a1.609,1.609,0,0,1,1.609,1.609v17.233A1.609,1.609,0,0,1,1257.769,1317.537Z" transform="translate(-517.146 2946.2)" fill="#68c5a8"/>
    <path id="Path_1582" data-name="Path 1582" d="M1234.033,1320.821h0a1.61,1.61,0,0,1,1.61-1.609h17.232a1.609,1.609,0,0,1,1.609,1.609h0a1.61,1.61,0,0,1-1.609,1.61h-17.232A1.61,1.61,0,0,1,1234.033,1320.821Z" transform="translate(-503.636 2932.69)" fill="#68c5a8"/>
    <ellipse id="Ellipse_10" data-name="Ellipse 10" cx="5.153" cy="5.153" rx="5.153" ry="5.153" transform="translate(592.042 4129.957)" fill="#68c5a8"/>
  </g>
</svg>
